HIERARCHY
ROOT Hips
{
  OFFSET 2.30962 101.381 -40.3482
  CHANNELS 6 Xposition Yposition Zposition Zrotation Xrotation Yrotation
  JOINT RightUpLeg
  {
    OFFSET -8.9458 -8.66707 0.101652
    CHANNELS 3 Zrotation Xrotation Yrotation
    JOINT RightLeg
    {
      OFFSET 0 -44.4227 1.3727
      CHANNELS 3 Zrotation Xrotation Yrotation
      JOINT RightFoot
      {
        OFFSET 0.253549 -42.0924 -1.46059
        CHANNELS 3 Zrotation Xrotation Yrotation
        JOINT RightToes
        {
          OFFSET 0.04 -4.41509 8.4991
          CHANNELS 3 Zrotation Xrotation Yrotation
          End Site
          {
            OFFSET -0.08 -0.137448 9.77979
          }
        }
      }
    }
  }
  JOINT Spine
  {
    OFFSET 0 11.8905 0
    CHANNELS 3 Zrotation Xrotation Yrotation
    JOINT Spine1
    {
      OFFSET 0 25.6574 0.127663
      CHANNELS 3 Zrotation Xrotation Yrotation
      JOINT HEad
      {
        OFFSET 0 8.73416 0.011341
        CHANNELS 3 Zrotation Xrotation Yrotation
        End Site
        {
          OFFSET -0.29 12.7742 2.51395
        }
      }
      JOINT LeftShoulder1
      {
        OFFSET 8.99 -0.362252 -0.22
        CHANNELS 3 Zrotation Xrotation Yrotation
        JOINT LeftArm
        {
          OFFSET 10.2827 -0.00338 0.322123
          CHANNELS 3 Zrotation Xrotation Yrotation
          JOINT LeftForeArm
          {
            OFFSET 32.7669 0.099144 -1.42434
            CHANNELS 3 Zrotation Xrotation Yrotation
            JOINT LeftHand
            {
              OFFSET 27.5643 0.085362 1.02216
              CHANNELS 3 Zrotation Xrotation Yrotation
              End Site
              {
                OFFSET 16.7443 -0.6 1.50291
              }
            }
          }
        }
      }
      JOINT RightShoulder
      {
        OFFSET -8.99 -0.362252 -0.22
        CHANNELS 3 Zrotation Xrotation Yrotation
        JOINT RightArm
        {
          OFFSET -10.2827 -0.00338 0.322123
          CHANNELS 3 Zrotation Xrotation Yrotation
          JOINT RightForeArm
          {
            OFFSET -32.8971 0.099144 -1.42434
            CHANNELS 3 Zrotation Xrotation Yrotation
            JOINT RightHand
            {
              OFFSET -27.4921 0.085362 1.02216
              CHANNELS 3 Zrotation Xrotation Yrotation
              End Site
              {
                OFFSET -16.6312 -0.6 1.50291
              }
            }
          }
        }
      }
    }
  }
  JOINT LeftUpLeg
  {
    OFFSET 8.9458 -8.66707 0.101652
    CHANNELS 3 Zrotation Xrotation Yrotation
    JOINT LeftLeg
    {
      OFFSET 0 -44.4227 1.3727
      CHANNELS 3 Zrotation Xrotation Yrotation
      JOINT LeftFoot
      {
        OFFSET -0.253549 -42.0924 -1.46059
        CHANNELS 3 Zrotation Xrotation Yrotation
        JOINT LeftToes
        {
          OFFSET -0.04 -4.41509 8.4991
          CHANNELS 3 Zrotation Xrotation Yrotation
          End Site
          {
            OFFSET 0.08 -0.047448 9.77979
          }
        }
      }
    }
  }
}
MOTION
Frames:	10
Frame Time:	0.0166667
4.28599 97.6759 -43.0478 16.0283 15.2482 162.569 12.2424 31.12 -9.6453 20.8216 27.6974 -27.6634 -29.4424 1.21085 -0.829648 0.0462048 0.000533403 0.662642 3.20584 11.2638 -4.18931 -3.63587e-006 1.3977e-006 -0.0171924 9.32009 -1.10465 -25.9738 3.18055e-015 -3.18055e-015 -0 -109.28 -42.2464 -83.9884 -101.335 49.8058 -25.8221 25.5085 13.2116 -21.5948 15.0535 8.6466 -0.893087 102.415 -35.1637 87.5536 25.554 38.1095 62.2782 14.1816 19.42 7.0947 15.4403 -5.64323 -24.0846 -33.8384 8.6272 73.7532 21.8258 -1.55829 0.792845 -1.35361e-009 1.56028e-007 -4.8854e-009 
4.65919 98.889 -42.9955 19.1215 18.5762 167.252 14.994 27.7906 -16.0359 23.7418 33.4774 -20.2422 -27.4909 0.944067 -1.006 0.0462048 0.000533403 0.662642 5.54642 14.7863 -7.83828 -1.96742e-006 0.00556168 -0.0171924 11.5 4.33677 -25.8058 1.98785e-015 -7.95139e-016 -0 -107.65 -40.2208 -80.2855 -101.109 51.2782 -26.4116 25.5782 13.4109 -21.2436 18.2301 8.20678 -3.27278 99.0396 -37.2846 85.3829 25.0949 37.6525 63.3992 16.431 19.3241 -20.7777 17.3644 -3.06508 -30.2609 -33.4205 7.88605 73.3334 24.3044 -1.47384 0.890903 -1.3536e-009 1.56028e-007 -4.8854e-009 
4.90294 100.169 -42.9626 22.1036 20.8581 170.427 14.9126 23.0764 -21.0675 26.4181 38.7883 -14.1901 -28.9208 0.826771 -0.825777 0.0462048 0.000533403 0.662642 7.73841 17.4878 -10.7172 -6.92135e-007 0.00981171 -0.0171924 14.0738 10.9663 -25.446 1.78906e-015 -1.59028e-015 3.18055e-015 -105.668 -38.3971 -76.5321 -101.041 52.2292 -26.6748 25.8205 13.412 -21.1471 21.7429 8.02834 -6.14605 95.6876 -38.9982 83.18 23.4428 36.2088 61.4431 17.2405 19.621 1.88002 19.7994 -1.6014 -35.4605 -33.0244 7.28005 73.511 26.3241 -1.5114 1.28743 -1.35361e-009 1.56028e-007 -4.8854e-009 
4.9673 101.479 -43.0485 25.4786 21.4762 171.538 11.787 17.3786 -25.0291 29.3076 43.9101 -9.62207 -29.1449 0.316622 -0.120257 0.0462048 0.000533403 0.662642 9.71574 19.5617 -12.906 9.2522e-007 0.0152017 -0.0171924 16.9474 17.1439 -25.5736 -1.39149e-015 0 -3.18055e-015 -103.376 -36.8326 -72.4395 -98.7622 48.2475 -27.3019 22.7981 16.3295 -23.5503 25.5502 8.00674 -9.07277 92.3709 -40.6731 80.9961 22.5885 35.3009 60.904 16.1247 19.7066 -7.59763 22.702 -1.45664 -39.8199 -32.5678 6.8916 74.7738 27.5193 -1.51473 2.26059 -1.35361e-009 1.56028e-007 -4.8854e-009 
4.828 102.641 -43.1909 29.385 20.8365 170.911 7.34169 11.1213 -29.1155 31.9865 48.4902 -6.20959 -30.4677 0.550567 1.26345 0.0462048 0.000533403 0.662642 11.4757 21.1729 -14.4964 0.0041684 0.0205117 -0.0171924 20.1301 22.8169 -26.1318 -1.14301e-015 7.95139e-016 -0 -100.701 -35.3417 -68.0227 -97.979 46.6128 -27.1969 21.5083 17.8934 -24.7509 29.5732 8.0894 -12.0974 89.0933 -42.2649 78.794 22.1627 34.7466 61.4018 16.4342 19.9494 4.12728 25.9911 -2.13579 -43.5958 -32.3139 6.76827 77.1333 27.9547 -1.50776 3.78703 -1.35361e-009 1.56028e-007 -4.88541e-009 
4.50564 103.544 -43.3394 33.7621 19.308 168.966 2.53475 4.47827 -33.8549 34.171 52.3651 -3.62747 -31.4272 1.72862 3.00026 0.0462048 0.000533403 0.662642 13.0652 22.4506 -15.5833 0.0095462 0.0262518 -0.0171924 23.5864 27.9358 -27.0896 3.97569e-015 -7.95139e-016 -0 -97.6567 -33.7671 -63.3884 -97.7808 46.3626 -26.9836 31.864 9.51494 -13.188 33.7284 8.21188 -15.0489 85.8483 -43.9157 76.5929 21.8139 34.283 62.1682 15.857 20.0545 -2.55872 29.8492 -3.1455 -46.9793 -32.4018 6.05317 82.3185 28.3099 -1.23352 5.72392 -1.35361e-009 1.56028e-007 -4.8854e-009 
4.04978 104.089 -43.4452 38.4358 17.2315 166.141 -1.94892 -2.3977 -39.2807 35.571 55.5773 -1.5954 -32.4414 3.7906 4.84081 0.0462048 0.000533403 0.662642 15.0262 24.5825 -16.3753 0.021742 0.124762 -0.0171925 26.8332 31.2979 -27.8357 -1.78906e-015 -1.59028e-015 -3.18055e-015 -95.2033 -31.7983 -60.112 -97.5938 46.8589 -26.988 26.3199 14.438 -17.8761 37.5727 7.31855 -17.4308 82.801 -45.3371 74.4798 19.9236 33.3172 59.6752 15.4224 20.7134 8.90076 34.3176 -4.09243 -50.0952 -32.8828 4.99717 89.597 28.3194 -0.513446 7.88916 -1.35361e-009 1.56028e-007 -4.8854e-009 
3.52986 104.269 -43.4558 43.175 14.9188 162.838 -5.89881 -9.38792 -44.8891 36.0866 58.0799 -0.116491 -32.9204 6.43312 6.3551 0.0462048 0.000533403 0.662642 17.5323 27.349 -17.0842 0.0311829 0.122312 -0.0171925 29.5442 33.3847 -28.2563 -2.38542e-015 -1.59028e-015 3.18055e-015 -89.9275 -27.4924 -53.8975 -90.0249 46.115 -31.9663 26.5664 12.9981 -19.3607 40.8974 5.86627 -19.1168 79.9436 -46.6432 72.46 18.7222 32.6206 59.1576 15.1435 20.3732 -10.4582 38.9763 -4.59669 -52.984 -33.4215 4.36579 96.3852 27.5585 0.491856 10.0898 -1.35361e-009 1.56028e-007 -4.8854e-009 
3.01883 104.112 -43.3358 47.7223 12.6597 159.4 -9.54397 -16.4127 -49.9796 36.2882 59.9883 0.21457 -32.8508 9.10565 7.17326 0.0462048 0.000533403 0.662642 20.576 30.571 -17.8723 0.0352494 0.114942 -0.0171925 31.5154 34.3877 -28.2007 7.94503e-031 -4.77083e-015 9.54166e-015 -86.6459 -23.7463 -50.8771 -85.053 45.5291 -36.1406 21.702 16.7051 -23.6767 43.5185 4.00485 -19.9904 77.2886 -47.8692 70.4412 17.9128 31.9232 59.6999 14.6924 20.9229 9.51818 43.4153 -4.51131 -55.5743 -33.85 4.16043 102.509 26.3324 1.70097 12.0956 -1.3536e-009 1.56028e-007 -4.88541e-009 
2.59975 103.639 -43.091 51.8414 10.741 156.11 -13.6148 -23.4356 -54.0469 37.6699 61.5276 -2.00647 -32.0983 11.275 6.99186 0.0462048 0.000533403 0.662642 24.0996 34.1171 -18.8939 0.0372887 0.109472 -0.0171925 32.6667 34.5292 -27.6103 1.59028e-015 -3.18055e-015 9.54166e-015 -84.6516 -20.5818 -49.9499 -81.2532 44.9854 -39.7379 22.8152 15.6776 -22.8543 45.4028 1.92244 -19.9065 74.8093 -49.1277 68.4172 17.2987 30.9439 60.2452 14.6366 20.6183 -2.84327 47.2598 -3.79495 -57.7746 -33.9653 4.37097 107.762 24.9374 3.11329 13.7307 -1.3536e-009 1.56028e-007 -4.8854e-009 
